<svg width="230" height="191" viewBox="0 0 230 191" fill="none" xmlns="http://www.w3.org/2000/svg">
<path d="M104.368 69.701C104.168 69.501 103.096 65.774 101.986 61.419C96.0331 38.0584 75.5833 13.654 54.082 2.543C51.0368 0.968099 50.726 0.249998 49 0.999998C48.249 -2.522 47.216 5.411 47.078 17.407C46.557 62.45 59.942 99.46 86.024 125.096C89.813 128.821 92.391 130.198 95.5 131.536C102.377 133.827 141.773 139.033 161.695 117.684C169.12 109.726 173.698 100.678 178.041 90.851L172.27 91.525C165.818 92.278 144.286 96.705 142.896 97.564C141.301 98.55 141.938 96.471 144.929 90.928C156.626 69.257 160.279 34.341 153.763 6.5C153.119 3.75 152.695 1.05 152.819 0.499999C152.944 -0.050001 149.187 3.442 144.471 8.261C128.755 24.3168 114.593 45.0444 106.024 66.782C105.313 68.587 104.567 69.901 104.368 69.701Z" fill="#E87FAB"/>
<path d="M50.757 129.742C27.472 110.635 16.101 84.518 18.977 56.754C20.3852 43.1687 27.0581 14.3991 36.84 2.75C39.277 -0.152001 37.661 0.759999 32.408 5.25C18.825 16.86 9.062 32.835 3.838 52C-0.521833 67.9932 -0.50263 88.5992 4.361 104.451C11.997 129.337 27.272 147.002 51.5 158.969C68.787 167.507 80.851 170.402 99 170.367C120.248 170.326 139.883 164.04 156.269 152.274C162.772 147.603 169.207 141.221 175.068 133.629L180.373 126.758L173.436 131.536C135.185 157.886 84.147 157.14 50.757 129.742Z" fill="#E87FAB"/>
<path d="M189.195 62.823C193.459 61.546 199.434 56.241 202.307 51.182C203.3 49.432 203.975 48.026 203.807 48.058C190.387 50.581 173.689 60.294 178.04 63.046C180.048 64.316 184.51 64.227 189.195 62.823Z" fill="#E87FAB"/>
<path d="M229.417 115.665C229.488 111.553 229.08 110.468 226.694 108.415C225.151 107.087 222.945 106 221.792 106C219.286 106 211.241 114.033 205.266 122.5C188.055 146.894 157.461 167.141 128.963 174.681C107.507 180.358 81.4512 179.423 60.727 171.622C41.516 164.39 26.735 154.047 12.676 138C5.608 129.932 10.065 137.25 18.764 147.997C34.257 167.136 56.425 180.891 82.636 187.63C92.431 190.148 95.173 190.424 110.5 190.435C154.682 190.463 206.057 165.875 227.025 125C228.431 122.26 229.367 118.608 229.417 115.665Z" fill="#E87FAB"/>
</svg>
